<svg width="44" height="44" viewBox="0 0 44 44" fill="none" xmlns="http://www.w3.org/2000/svg">
<path d="M38.6652 15.1998C38.6652 15.1998 38.3332 12.8557 37.3105 11.8264C36.0156 10.4717 34.568 10.465 33.9039 10.3854C29.1492 10.04 22.0105 10.04 22.0105 10.04H21.9973C21.9973 10.04 14.8586 10.04 10.1039 10.3854C9.43984 10.465 7.99219 10.4717 6.69727 11.8264C5.67461 12.8557 5.34922 15.1998 5.34922 15.1998C5.34922 15.1998 5.00391 17.9557 5.00391 20.7049V23.2814C5.00391 26.0307 5.34258 28.7865 5.34258 28.7865C5.34258 28.7865 5.67461 31.1307 6.69062 32.16C7.98555 33.5146 9.68555 33.4682 10.4426 33.6143C13.1652 33.8732 22.0039 33.9529 22.0039 33.9529C22.0039 33.9529 29.1492 33.9396 33.9039 33.601C34.568 33.5213 36.0156 33.5146 37.3105 32.16C38.3332 31.1307 38.6652 28.7865 38.6652 28.7865C38.6652 28.7865 39.0039 26.0373 39.0039 23.2814V20.7049C39.0039 17.9557 38.6652 15.1998 38.6652 15.1998ZM18.491 26.4092V16.8533L27.675 21.6479L18.491 26.4092Z" fill="white"/>
</svg>
